<svg version="1.1" xmlns="http://www.w3.org/2000/svg" viewBox="0 0 580 531.6666666666661" width="580" height="531.6666666666661" filter="invert(93%) hue-rotate(180deg)">
  <!-- svg-source:excalidraw -->

  <defs>
    <style class="style-fonts">
      @font-face {
        font-family: "Virgil";
        src: url("https://excalidraw.com/Virgil.woff2");
      }
      @font-face {
        font-family: "Cascadia";
        src: url("https://excalidraw.com/Cascadia.woff2");
      }
      @font-face {
        font-family: "Assistant";
        src: url("https://excalidraw.com/Assistant-Regular.woff2");
      }
    </style>

  </defs>
  <g stroke-linecap="round" transform="translate(10.000000000000114 10) rotate(0 279.99999999999994 255.83333333333326)"><path d="M560 255.83 C560 260.79, 559.84 265.76, 559.53 270.71 C559.21 275.66, 558.74 280.61, 558.11 285.53 C557.48 290.46, 556.69 295.38, 555.75 300.26 C554.8 305.14, 553.7 310.01, 552.45 314.83 C551.2 319.66, 549.79 324.46, 548.24 329.21 C546.68 333.96, 544.97 338.67, 543.11 343.33 C541.26 347.99, 539.25 352.61, 537.1 357.16 C534.95 361.72, 532.65 366.22, 530.22 370.65 C527.78 375.08, 525.2 379.46, 522.49 383.75 C519.77 388.04, 516.92 392.27, 513.94 396.42 C510.95 400.56, 507.84 404.63, 504.59 408.61 C501.35 412.58, 497.98 416.48, 494.49 420.28 C491 424.08, 487.39 427.79, 483.66 431.4 C479.94 435, 476.1 438.52, 472.15 441.92 C468.2 445.32, 464.14 448.63, 459.98 451.81 C455.82 455, 451.56 458.08, 447.2 461.04 C442.85 464, 438.4 466.85, 433.86 469.58 C429.33 472.3, 424.7 474.91, 420 477.39 C415.3 479.87, 410.51 482.23, 405.66 484.45 C400.81 486.68, 395.89 488.78, 390.9 490.74 C385.92 492.71, 380.87 494.54, 375.77 496.24 C370.67 497.93, 365.5 499.5, 360.3 500.92 C355.11 502.34, 349.85 503.63, 344.57 504.77 C339.29 505.91, 333.97 506.92, 328.62 507.78 C323.28 508.64, 317.9 509.36, 312.51 509.94 C307.12 510.51, 301.7 510.95, 296.28 511.23 C290.86 511.52, 285.43 511.67, 280 511.67 C274.57 511.67, 269.14 511.52, 263.72 511.23 C258.3 510.95, 252.88 510.51, 247.49 509.94 C242.1 509.36, 236.72 508.64, 231.38 507.78 C226.03 506.92, 220.71 505.91, 215.43 504.77 C210.15 503.63, 204.89 502.34, 199.7 500.92 C194.5 499.5, 189.33 497.93, 184.23 496.24 C179.13 494.54, 174.08 492.71, 169.1 490.74 C164.11 488.78, 159.19 486.68, 154.34 484.45 C149.49 482.23, 144.7 479.87, 140 477.39 C135.3 474.91, 130.67 472.3, 126.14 469.58 C121.6 466.85, 117.15 464, 112.8 461.04 C108.44 458.08, 104.18 455, 100.02 451.81 C95.86 448.63, 91.8 445.32, 87.85 441.92 C83.9 438.52, 80.06 435, 76.34 431.4 C72.61 427.79, 69 424.08, 65.51 420.28 C62.02 416.48, 58.65 412.58, 55.41 408.61 C52.16 404.63, 49.05 400.56, 46.06 396.42 C43.08 392.27, 40.23 388.04, 37.51 383.75 C34.8 379.46, 32.22 375.08, 29.78 370.65 C27.35 366.22, 25.05 361.72, 22.9 357.16 C20.75 352.61, 18.74 347.99, 16.89 343.33 C15.03 338.67, 13.32 333.96, 11.76 329.21 C10.21 324.46, 8.8 319.66, 7.55 314.83 C6.3 310.01, 5.2 305.14, 4.25 300.26 C3.31 295.38, 2.52 290.46, 1.89 285.53 C1.26 280.61, 0.79 275.66, 0.47 270.71 C0.16 265.76, 0 260.79, 0 255.83 C0 250.87, 0.16 245.91, 0.47 240.96 C0.79 236.01, 1.26 231.06, 1.89 226.13 C2.52 221.21, 3.31 216.29, 4.25 211.41 C5.2 206.53, 6.3 201.66, 7.55 196.83 C8.8 192.01, 10.21 187.21, 11.76 182.46 C13.32 177.71, 15.03 172.99, 16.89 168.33 C18.74 163.67, 20.75 159.06, 22.9 154.5 C25.05 149.95, 27.35 145.45, 29.78 141.02 C32.22 136.58, 34.8 132.21, 37.51 127.92 C40.23 123.62, 43.08 119.39, 46.06 115.25 C49.05 111.11, 52.16 107.04, 55.41 103.06 C58.65 99.08, 62.02 95.19, 65.51 91.39 C69 87.59, 72.61 83.88, 76.34 80.27 C80.06 76.66, 83.9 73.15, 87.85 69.75 C91.8 66.34, 95.86 63.04, 100.02 59.85 C104.18 56.67, 108.44 53.58, 112.8 50.62 C117.15 47.66, 121.6 44.81, 126.14 42.09 C130.67 39.36, 135.3 36.75, 140 34.28 C144.7 31.8, 149.49 29.44, 154.34 27.21 C159.19 24.99, 164.11 22.89, 169.1 20.92 C174.08 18.96, 179.13 17.12, 184.23 15.43 C189.33 13.73, 194.5 12.17, 199.7 10.75 C204.89 9.33, 210.15 8.04, 215.43 6.9 C220.71 5.75, 226.03 4.75, 231.38 3.89 C236.72 3.03, 242.1 2.31, 247.49 1.73 C252.88 1.15, 258.3 0.72, 263.72 0.43 C269.14 0.14, 274.57 0, 280 0 C285.43 0, 290.86 0.14, 296.28 0.43 C301.7 0.72, 307.12 1.15, 312.51 1.73 C317.9 2.31, 323.28 3.03, 328.62 3.89 C333.97 4.75, 339.29 5.75, 344.57 6.9 C349.85 8.04, 355.11 9.33, 360.3 10.75 C365.5 12.17, 370.67 13.73, 375.77 15.43 C380.87 17.12, 385.92 18.96, 390.9 20.92 C395.89 22.89, 400.81 24.99, 405.66 27.21 C410.51 29.44, 415.3 31.8, 420 34.28 C424.7 36.75, 429.33 39.36, 433.86 42.09 C438.4 44.81, 442.85 47.66, 447.2 50.62 C451.56 53.58, 455.82 56.67, 459.98 59.85 C464.14 63.04, 468.2 66.34, 472.15 69.75 C476.1 73.15, 479.94 76.66, 483.66 80.27 C487.39 83.88, 491 87.59, 494.49 91.39 C497.98 95.19, 501.35 99.08, 504.59 103.06 C507.84 107.04, 510.95 111.11, 513.94 115.25 C516.92 119.39, 519.77 123.62, 522.49 127.92 C525.2 132.21, 527.78 136.58, 530.22 141.02 C532.65 145.45, 534.95 149.95, 537.1 154.5 C539.25 159.06, 541.26 163.67, 543.11 168.33 C544.97 172.99, 546.68 177.71, 548.24 182.46 C549.79 187.21, 551.2 192.01, 552.45 196.83 C553.7 201.66, 554.8 206.53, 555.75 211.41 C556.69 216.29, 557.48 221.21, 558.11 226.13 C558.74 231.06, 559.21 236.01, 559.53 240.96 C559.84 245.91, 560 250.87, 560 255.83" stroke="none" stroke-width="0" fill="#7950f2"></path><path d="M560 255.83 C560 260.79, 559.84 265.76, 559.53 270.71 C559.21 275.66, 558.74 280.61, 558.11 285.53 C557.48 290.46, 556.69 295.38, 555.75 300.26 C554.8 305.14, 553.7 310.01, 552.45 314.83 C551.2 319.66, 549.79 324.46, 548.24 329.21 C546.68 333.96, 544.97 338.67, 543.11 343.33 C541.26 347.99, 539.25 352.61, 537.1 357.16 C534.95 361.72, 532.65 366.22, 530.22 370.65 C527.78 375.08, 525.2 379.46, 522.49 383.75 C519.77 388.04, 516.92 392.27, 513.94 396.42 C510.95 400.56, 507.84 404.63, 504.59 408.61 C501.35 412.58, 497.98 416.48, 494.49 420.28 C491 424.08, 487.39 427.79, 483.66 431.4 C479.94 435, 476.1 438.52, 472.15 441.92 C468.2 445.32, 464.14 448.63, 459.98 451.81 C455.82 455, 451.56 458.08, 447.2 461.04 C442.85 464, 438.4 466.85, 433.86 469.58 C429.33 472.3, 424.7 474.91, 420 477.39 C415.3 479.87, 410.51 482.23, 405.66 484.45 C400.81 486.68, 395.89 488.78, 390.9 490.74 C385.92 492.71, 380.87 494.54, 375.77 496.24 C370.67 497.93, 365.5 499.5, 360.3 500.92 C355.11 502.34, 349.85 503.63, 344.57 504.77 C339.29 505.91, 333.97 506.92, 328.62 507.78 C323.28 508.64, 317.9 509.36, 312.51 509.94 C307.12 510.51, 301.7 510.95, 296.28 511.23 C290.86 511.52, 285.43 511.67, 280 511.67 C274.57 511.67, 269.14 511.52, 263.72 511.23 C258.3 510.95, 252.88 510.51, 247.49 509.94 C242.1 509.36, 236.72 508.64, 231.38 507.78 C226.03 506.92, 220.71 505.91, 215.43 504.77 C210.15 503.63, 204.89 502.34, 199.7 500.92 C194.5 499.5, 189.33 497.93, 184.23 496.24 C179.13 494.54, 174.08 492.71, 169.1 490.74 C164.11 488.78, 159.19 486.68, 154.34 484.45 C149.49 482.23, 144.7 479.87, 140 477.39 C135.3 474.91, 130.67 472.3, 126.14 469.58 C121.6 466.85, 117.15 464, 112.8 461.04 C108.44 458.08, 104.18 455, 100.02 451.81 C95.86 448.63, 91.8 445.32, 87.85 441.92 C83.9 438.52, 80.06 435, 76.34 431.4 C72.61 427.79, 69 424.08, 65.51 420.28 C62.02 416.48, 58.65 412.58, 55.41 408.61 C52.16 404.63, 49.05 400.56, 46.06 396.42 C43.08 392.27, 40.23 388.04, 37.51 383.75 C34.8 379.46, 32.22 375.08, 29.78 370.65 C27.35 366.22, 25.05 361.72, 22.9 357.16 C20.75 352.61, 18.74 347.99, 16.89 343.33 C15.03 338.67, 13.32 333.96, 11.76 329.21 C10.21 324.46, 8.8 319.66, 7.55 314.83 C6.3 310.01, 5.2 305.14, 4.25 300.26 C3.31 295.38, 2.52 290.46, 1.89 285.53 C1.26 280.61, 0.79 275.66, 0.47 270.71 C0.16 265.76, 0 260.79, 0 255.83 C0 250.87, 0.16 245.91, 0.47 240.96 C0.79 236.01, 1.26 231.06, 1.89 226.13 C2.52 221.21, 3.31 216.29, 4.25 211.41 C5.2 206.53, 6.3 201.66, 7.55 196.83 C8.8 192.01, 10.21 187.21, 11.76 182.46 C13.32 177.71, 15.03 172.99, 16.89 168.33 C18.74 163.67, 20.75 159.06, 22.9 154.5 C25.05 149.95, 27.35 145.45, 29.78 141.02 C32.22 136.58, 34.8 132.21, 37.51 127.92 C40.23 123.62, 43.08 119.39, 46.06 115.25 C49.05 111.11, 52.16 107.04, 55.41 103.06 C58.65 99.08, 62.02 95.19, 65.51 91.39 C69 87.59, 72.61 83.88, 76.34 80.27 C80.06 76.66, 83.9 73.15, 87.85 69.75 C91.8 66.34, 95.86 63.04, 100.02 59.85 C104.18 56.67, 108.44 53.58, 112.8 50.62 C117.15 47.66, 121.6 44.81, 126.14 42.09 C130.67 39.36, 135.3 36.75, 140 34.28 C144.7 31.8, 149.49 29.44, 154.34 27.21 C159.19 24.99, 164.11 22.89, 169.1 20.92 C174.08 18.96, 179.13 17.12, 184.23 15.43 C189.33 13.73, 194.5 12.17, 199.7 10.75 C204.89 9.33, 210.15 8.04, 215.43 6.9 C220.71 5.75, 226.03 4.75, 231.38 3.89 C236.72 3.03, 242.1 2.31, 247.49 1.73 C252.88 1.15, 258.3 0.72, 263.72 0.43 C269.14 0.14, 274.57 0, 280 0 C285.43 0, 290.86 0.14, 296.28 0.43 C301.7 0.72, 307.12 1.15, 312.51 1.73 C317.9 2.31, 323.28 3.03, 328.62 3.89 C333.97 4.75, 339.29 5.75, 344.57 6.9 C349.85 8.04, 355.11 9.33, 360.3 10.75 C365.5 12.17, 370.67 13.73, 375.77 15.43 C380.87 17.12, 385.92 18.96, 390.9 20.92 C395.89 22.89, 400.81 24.99, 405.66 27.21 C410.51 29.44, 415.3 31.8, 420 34.28 C424.7 36.75, 429.33 39.36, 433.86 42.09 C438.4 44.81, 442.85 47.66, 447.2 50.62 C451.56 53.58, 455.82 56.67, 459.98 59.85 C464.14 63.04, 468.2 66.34, 472.15 69.75 C476.1 73.15, 479.94 76.66, 483.66 80.27 C487.39 83.88, 491 87.59, 494.49 91.39 C497.98 95.19, 501.35 99.08, 504.59 103.06 C507.84 107.04, 510.95 111.11, 513.94 115.25 C516.92 119.39, 519.77 123.62, 522.49 127.92 C525.2 132.21, 527.78 136.58, 530.22 141.02 C532.65 145.45, 534.95 149.95, 537.1 154.5 C539.25 159.06, 541.26 163.67, 543.11 168.33 C544.97 172.99, 546.68 177.71, 548.24 182.46 C549.79 187.21, 551.2 192.01, 552.45 196.83 C553.7 201.66, 554.8 206.53, 555.75 211.41 C556.69 216.29, 557.48 221.21, 558.11 226.13 C558.74 231.06, 559.21 236.01, 559.53 240.96 C559.84 245.91, 560 250.87, 560 255.83" stroke="#1971c2" stroke-width="4" fill="none"></path></g><g transform="translate(51.66666666666697 33.077451644386656) rotate(0 117.32535700601238 220.88692907361883)"><text x="0" y="353.42658947054383" font-family="Helvetica, Segoe UI Emoji" font-size="384.15118099759786px" fill="#ffffff" text-anchor="start" style="white-space: pre;" direction="ltr" dominant-baseline="alphabetic">Z</text></g><g transform="translate(289.3491473191714 31.33650413002897) rotate(0 130.33172899117938 224.7164576953362)"><text x="0" y="359.5539653443892" font-family="Helvetica, Segoe UI Emoji" font-size="390.81123077449803px" fill="#ffffff" text-anchor="start" style="white-space: pre;" direction="ltr" dominant-baseline="alphabetic">P</text></g><g stroke-linecap="round" transform="translate(275.0000000000001 38.333333333332575) rotate(0 21.53846153846149 20)"><path d="M43.08 20 C43.08 21.16, 42.97 22.33, 42.75 23.47 C42.53 24.61, 42.2 25.75, 41.78 26.84 C41.35 27.93, 40.81 29, 40.19 30 C39.57 31, 38.84 31.97, 38.04 32.86 C37.24 33.74, 36.34 34.58, 35.38 35.32 C34.43 36.07, 33.39 36.74, 32.31 37.32 C31.23 37.9, 30.08 38.4, 28.91 38.79 C27.73 39.19, 26.51 39.5, 25.28 39.7 C24.05 39.9, 22.79 40, 21.54 40 C20.29 40, 19.03 39.9, 17.8 39.7 C16.57 39.5, 15.34 39.19, 14.17 38.79 C13 38.4, 11.85 37.9, 10.77 37.32 C9.69 36.74, 8.65 36.07, 7.69 35.32 C6.74 34.58, 5.84 33.74, 5.04 32.86 C4.24 31.97, 3.51 31, 2.89 30 C2.26 29, 1.73 27.93, 1.3 26.84 C0.87 25.75, 0.54 24.61, 0.33 23.47 C0.11 22.33, 0 21.16, 0 20 C0 18.84, 0.11 17.67, 0.33 16.53 C0.54 15.39, 0.87 14.25, 1.3 13.16 C1.73 12.07, 2.26 11, 2.89 10 C3.51 9, 4.24 8.03, 5.04 7.14 C5.84 6.26, 6.74 5.42, 7.69 4.68 C8.65 3.93, 9.69 3.26, 10.77 2.68 C11.85 2.1, 13 1.6, 14.17 1.21 C15.34 0.81, 16.57 0.5, 17.8 0.3 C19.03 0.1, 20.29 0, 21.54 0 C22.79 0, 24.05 0.1, 25.28 0.3 C26.51 0.5, 27.73 0.81, 28.91 1.21 C30.08 1.6, 31.23 2.1, 32.31 2.68 C33.39 3.26, 34.43 3.93, 35.38 4.68 C36.34 5.42, 37.24 6.26, 38.04 7.14 C38.84 8.03, 39.57 9, 40.19 10 C40.81 11, 41.35 12.07, 41.78 13.16 C42.2 14.25, 42.53 15.39, 42.75 16.53 C42.97 17.67, 43.02 19.42, 43.08 20 C43.13 20.58, 43.13 19.42, 43.08 20" stroke="none" stroke-width="0" fill="#ffffff"></path><path d="M43.08 20 C43.08 21.16, 42.97 22.33, 42.75 23.47 C42.53 24.61, 42.2 25.75, 41.78 26.84 C41.35 27.93, 40.81 29, 40.19 30 C39.57 31, 38.84 31.97, 38.04 32.86 C37.24 33.74, 36.34 34.58, 35.38 35.32 C34.43 36.07, 33.39 36.74, 32.31 37.32 C31.23 37.9, 30.08 38.4, 28.91 38.79 C27.73 39.19, 26.51 39.5, 25.28 39.7 C24.05 39.9, 22.79 40, 21.54 40 C20.29 40, 19.03 39.9, 17.8 39.7 C16.57 39.5, 15.34 39.19, 14.17 38.79 C13 38.4, 11.85 37.9, 10.77 37.32 C9.69 36.74, 8.65 36.07, 7.69 35.32 C6.74 34.58, 5.84 33.74, 5.04 32.86 C4.24 31.97, 3.51 31, 2.89 30 C2.26 29, 1.73 27.93, 1.3 26.84 C0.87 25.75, 0.54 24.61, 0.33 23.47 C0.11 22.33, 0 21.16, 0 20 C0 18.84, 0.11 17.67, 0.33 16.53 C0.54 15.39, 0.87 14.25, 1.3 13.16 C1.73 12.07, 2.26 11, 2.89 10 C3.51 9, 4.24 8.03, 5.04 7.14 C5.84 6.26, 6.74 5.42, 7.69 4.68 C8.65 3.93, 9.69 3.26, 10.77 2.68 C11.85 2.1, 13 1.6, 14.17 1.21 C15.34 0.81, 16.57 0.5, 17.8 0.3 C19.03 0.1, 20.29 0, 21.54 0 C22.79 0, 24.05 0.1, 25.28 0.3 C26.51 0.5, 27.73 0.81, 28.91 1.21 C30.08 1.6, 31.23 2.1, 32.31 2.68 C33.39 3.26, 34.43 3.93, 35.38 4.68 C36.34 5.42, 37.24 6.26, 38.04 7.14 C38.84 8.03, 39.57 9, 40.19 10 C40.81 11, 41.35 12.07, 41.78 13.16 C42.2 14.25, 42.53 15.39, 42.75 16.53 C42.97 17.67, 43.02 19.42, 43.08 20 C43.13 20.58, 43.13 19.42, 43.08 20" stroke="#ffffff" stroke-width="1" fill="none"></path></g><g stroke-linecap="round" transform="translate(273.46153846153845 436.66666666666697) rotate(0 21.53846153846149 20)"><path d="M43.08 20 C43.08 21.16, 42.97 22.33, 42.75 23.47 C42.53 24.61, 42.2 25.75, 41.78 26.84 C41.35 27.93, 40.81 29, 40.19 30 C39.57 31, 38.84 31.97, 38.04 32.86 C37.24 33.74, 36.34 34.58, 35.38 35.32 C34.43 36.07, 33.39 36.74, 32.31 37.32 C31.23 37.9, 30.08 38.4, 28.91 38.79 C27.73 39.19, 26.51 39.5, 25.28 39.7 C24.05 39.9, 22.79 40, 21.54 40 C20.29 40, 19.03 39.9, 17.8 39.7 C16.57 39.5, 15.34 39.19, 14.17 38.79 C13 38.4, 11.85 37.9, 10.77 37.32 C9.69 36.74, 8.65 36.07, 7.69 35.32 C6.74 34.58, 5.84 33.74, 5.04 32.86 C4.24 31.97, 3.51 31, 2.89 30 C2.26 29, 1.73 27.93, 1.3 26.84 C0.87 25.75, 0.54 24.61, 0.33 23.47 C0.11 22.33, 0 21.16, 0 20 C0 18.84, 0.11 17.67, 0.33 16.53 C0.54 15.39, 0.87 14.25, 1.3 13.16 C1.73 12.07, 2.26 11, 2.89 10 C3.51 9, 4.24 8.03, 5.04 7.14 C5.84 6.26, 6.74 5.42, 7.69 4.68 C8.65 3.93, 9.69 3.26, 10.77 2.68 C11.85 2.1, 13 1.6, 14.17 1.21 C15.34 0.81, 16.57 0.5, 17.8 0.3 C19.03 0.1, 20.29 0, 21.54 0 C22.79 0, 24.05 0.1, 25.28 0.3 C26.51 0.5, 27.73 0.81, 28.91 1.21 C30.08 1.6, 31.23 2.1, 32.31 2.68 C33.39 3.26, 34.43 3.93, 35.38 4.68 C36.34 5.42, 37.24 6.26, 38.04 7.14 C38.84 8.03, 39.57 9, 40.19 10 C40.81 11, 41.35 12.07, 41.78 13.16 C42.2 14.25, 42.53 15.39, 42.75 16.53 C42.97 17.67, 43.02 19.42, 43.08 20 C43.13 20.58, 43.13 19.42, 43.08 20" stroke="none" stroke-width="0" fill="#ffffff"></path><path d="M43.08 20 C43.08 21.16, 42.97 22.33, 42.75 23.47 C42.53 24.61, 42.2 25.75, 41.78 26.84 C41.35 27.93, 40.81 29, 40.19 30 C39.57 31, 38.84 31.97, 38.04 32.86 C37.24 33.74, 36.34 34.58, 35.38 35.32 C34.43 36.07, 33.39 36.74, 32.31 37.32 C31.23 37.9, 30.08 38.4, 28.91 38.79 C27.73 39.19, 26.51 39.5, 25.28 39.7 C24.05 39.9, 22.79 40, 21.54 40 C20.29 40, 19.03 39.9, 17.8 39.7 C16.57 39.5, 15.34 39.19, 14.17 38.79 C13 38.4, 11.85 37.9, 10.77 37.32 C9.69 36.74, 8.65 36.07, 7.69 35.32 C6.74 34.58, 5.84 33.74, 5.04 32.86 C4.24 31.97, 3.51 31, 2.89 30 C2.26 29, 1.73 27.93, 1.3 26.84 C0.87 25.75, 0.54 24.61, 0.33 23.47 C0.11 22.33, 0 21.16, 0 20 C0 18.84, 0.11 17.67, 0.33 16.53 C0.54 15.39, 0.87 14.25, 1.3 13.16 C1.73 12.07, 2.26 11, 2.89 10 C3.51 9, 4.24 8.03, 5.04 7.14 C5.84 6.26, 6.74 5.42, 7.69 4.68 C8.65 3.93, 9.69 3.26, 10.77 2.68 C11.85 2.1, 13 1.6, 14.17 1.21 C15.34 0.81, 16.57 0.5, 17.8 0.3 C19.03 0.1, 20.29 0, 21.54 0 C22.79 0, 24.05 0.1, 25.28 0.3 C26.51 0.5, 27.73 0.81, 28.91 1.21 C30.08 1.6, 31.23 2.1, 32.31 2.68 C33.39 3.26, 34.43 3.93, 35.38 4.68 C36.34 5.42, 37.24 6.26, 38.04 7.14 C38.84 8.03, 39.57 9, 40.19 10 C40.81 11, 41.35 12.07, 41.78 13.16 C42.2 14.25, 42.53 15.39, 42.75 16.53 C42.97 17.67, 43.02 19.42, 43.08 20 C43.13 20.58, 43.13 19.42, 43.08 20" stroke="#ffffff" stroke-width="1" fill="none"></path></g></svg>