<svg width="535" height="535" viewBox="0 0 535 535" fill="none" xmlns="http://www.w3.org/2000/svg">
<circle cx="267.5" cy="267.5" r="264.5" fill="#F9E028" stroke="black" stroke-width="6"/>
<mask id="path-2-inside-1_0_1" fill="white">
<path d="M392 337C392 344.436 388.721 351.797 382.354 358.655C375.987 365.512 366.66 371.728 354.917 376.94C343.173 382.152 329.249 386.256 313.957 389.012C298.664 391.768 282.31 393.121 265.847 392.992C249.384 392.862 233.143 391.254 218.072 388.26C203.001 385.266 189.4 380.946 178.065 375.553C166.73 370.16 157.886 363.802 152.05 356.848C146.214 349.895 143.503 342.487 144.075 335.056L166.363 335.405C165.894 341.5 168.118 347.576 172.904 353.279C177.69 358.981 184.943 364.196 194.24 368.619C203.537 373.043 214.691 376.585 227.052 379.041C239.412 381.496 252.732 382.816 266.234 382.921C279.736 383.027 293.149 381.918 305.691 379.658C318.234 377.397 329.653 374.032 339.285 369.757C348.916 365.482 356.566 360.384 361.787 354.76C367.009 349.136 369.698 343.099 369.698 337H392Z"/>
</mask>
<path d="M392 337C392 344.436 388.721 351.797 382.354 358.655C375.987 365.512 366.66 371.728 354.917 376.94C343.173 382.152 329.249 386.256 313.957 389.012C298.664 391.768 282.31 393.121 265.847 392.992C249.384 392.862 233.143 391.254 218.072 388.26C203.001 385.266 189.4 380.946 178.065 375.553C166.73 370.16 157.886 363.802 152.05 356.848C146.214 349.895 143.503 342.487 144.075 335.056L166.363 335.405C165.894 341.5 168.118 347.576 172.904 353.279C177.69 358.981 184.943 364.196 194.24 368.619C203.537 373.043 214.691 376.585 227.052 379.041C239.412 381.496 252.732 382.816 266.234 382.921C279.736 383.027 293.149 381.918 305.691 379.658C318.234 377.397 329.653 374.032 339.285 369.757C348.916 365.482 356.566 360.384 361.787 354.76C367.009 349.136 369.698 343.099 369.698 337H392Z" fill="black" stroke="black" stroke-width="2" mask="url(#path-2-inside-1_0_1)"/>
</svg>
